<?xml version="1.0" encoding="iso-8859-1"?>
<!-- Uploaded to: SVG Repo, www.svgrepo.com, Generator: SVG Repo Mixer Tools -->
<svg version="1.1" id="Layer_1" xmlns="http://www.w3.org/2000/svg" xmlns:xlink="http://www.w3.org/1999/xlink" 
	 viewBox="0 0 490.275 490.275" xml:space="preserve">
<g>
	<path style="fill:#FBB03B;" d="M342.156,214.484c7.802,7.802,15.609,11.536,23.176,11.105c9.002-0.515,15.887-6.72,18.392-9.314
		L283.52,64.407l33.384,135.941C326.37,202.543,334.933,207.261,342.156,214.484z"/>
	<path style="fill:#29ABE2;" d="M406.326,250.53l-14.028-21.261c-5.071,4.558-14.196,10.939-26.09,11.619
		c-0.709,0.041-1.418,0.061-2.125,0.061c-11.373,0-22.384-5.25-32.763-15.629c-1.874-1.874-3.818-3.454-5.807-4.798l26.729,55.962
		L406.326,250.53z"/>
	<polygon style="fill:#29ABE2;" points="231,320.509 231,183.962 170.439,320.509 	"/>
	<path style="fill:#FBB03B;" d="M264.166,421.404c45.599,14.174,88.653,15.473,124.71,11.528l51.071-66.423h-217.63L264.166,421.404
		z M374,389.509v16h-38v-16H374z"/>
	<path style="fill:#F7931E;" d="M108.906,366.509l16.553,23.507c34.99,1.063,75.561,7.655,119.458,24.675
		c6.458,2.504,12.879,4.732,19.25,6.713l-41.849-54.895H108.906z"/>
	<path style="fill:#29ABE2;" d="M490.032,421.722c-3.667,1.938-53.072,28.13-137.783,28.137c-34.854,0-73.197-5.492-112.87-20.877
		c-53.438-20.716-103.481-24.547-143.861-21.901l178.909,76.688h215.708v-69.123l0,0L490.032,421.722z"/>
	<path style="fill:#1F80AA;" d="M0.134,427.754v56.016h274.292L95.518,407.082C39.805,410.733,2.509,426.714,0.134,427.754z
		 M172.259,459.441l-10.836,10.836c-13.594-13.594-30.858-17.763-51.311-12.382c-16.174,4.253-28.364,13.058-28.485,13.146
		l-9.064-12.356c0.575-0.423,14.308-10.414,33.164-15.481C131.663,436.233,154.667,441.849,172.259,459.441z"/>
	<path style="fill:#F7931E;" d="M316.905,200.348L283.52,64.407l-4.52-6.85v146.128
		C292.462,198.754,305.356,197.671,316.905,200.348z"/>
	<path style="fill:#1F80AA;" d="M325.513,220.521c-15.827-10.701-34.645-5.615-46.513-0.3v91.408l73.242-35.147L325.513,220.521z"/>
	<path d="M134.161,125.225c-0.006,1.692,0.125,2.854,0.171,3.216l15.26-0.982c0.001-0.917-0.031-1.818-0.095-2.705
		c0.078-2.136,0.602-5.859,3.059-8.75c2.65-3.119,7.231-4.807,13.617-5.017l-0.503-15.316c-10.74,0.353-19.003,3.767-24.567,10.149
		c-2.618-2.59-5.813-4.752-9.548-6.425c-8.009-3.589-15.767-3.724-16.625-3.728l-0.063,15.324c0.051,0,5.369,0.123,10.422,2.388
		C130.731,115.818,133.591,119.613,134.161,125.225z"/>
	<path d="M264,6.505v329.476l165.113-79.233L264,6.505z M279,57.557l4.52,6.851l100.203,151.867
		c-2.504,2.594-9.389,8.799-18.392,9.314c-7.567,0.431-15.374-3.303-23.176-11.105c-7.222-7.222-15.785-11.941-25.251-14.136
		c-11.548-2.677-24.442-1.594-37.905,3.337V57.557H279z M279,220.221c11.868-5.315,30.686-10.401,46.513,0.3
		c1.988,1.344,3.932,2.924,5.807,4.798c10.379,10.379,21.39,15.63,32.763,15.629c0.706,0,1.416-0.021,2.125-0.061
		c11.893-0.68,21.019-7.061,26.09-11.619l14.028,21.261l-54.084,25.953L279,311.63V220.221z"/>
	<path style="fill:#FFFFFF;" d="M72.563,458.684l9.064,12.356c0.121-0.088,12.311-8.894,28.485-13.146
		c20.453-5.381,37.716-1.212,51.311,12.382l10.836-10.836c-17.592-17.592-40.597-23.208-66.532-16.237
		C86.871,448.27,73.139,458.261,72.563,458.684z"/>
	<path d="M239.379,428.983c39.673,15.384,78.016,20.877,112.87,20.877c84.711-0.008,134.116-26.199,137.783-28.137l0.102-7.075
		l0.141-9.759c-0.617,0.324-31.328,16.267-78.695,24.766l60.851-79.144H78.07l27.796,39.474C43.575,391.677,3.073,409.997,0,411.382
		v16.431c0,0,0.054-0.024,0.134-0.059c2.374-1.04,39.671-17.021,95.383-20.672C135.898,404.436,185.941,408.267,239.379,428.983z
		 M388.877,432.932c-36.058,3.945-79.111,2.646-124.71-11.528c-6.371-1.98-12.792-4.209-19.25-6.713
		c-43.897-17.02-84.467-23.612-119.458-24.675l-16.553-23.507h113.412h217.63L388.877,432.932z"/>
	<path d="M50.979,225.692c-0.006,1.692,0.125,2.854,0.171,3.216l15.26-0.982c0.001-0.917-0.031-1.818-0.095-2.705
		c0.078-2.136,0.602-5.859,3.059-8.75c2.65-3.119,7.231-4.807,13.617-5.017l-0.503-15.316c-10.74,0.353-19.003,3.767-24.567,10.149
		c-2.618-2.59-5.813-4.752-9.548-6.425c-8.009-3.589-15.767-3.724-16.625-3.728l-0.063,15.324c0.051,0,5.369,0.123,10.422,2.388
		C47.549,216.284,50.409,220.079,50.979,225.692z"/>
	<path d="M418.765,156.732c-0.006,1.692,0.125,2.854,0.171,3.216l15.26-0.982c0.001-0.917-0.031-1.818-0.095-2.705
		c0.078-2.136,0.602-5.859,3.059-8.75c2.65-3.119,7.231-4.807,13.617-5.017l-0.503-15.316c-10.74,0.353-19.003,3.767-24.567,10.149
		c-2.618-2.59-5.813-4.752-9.548-6.425c-8.009-3.589-15.767-3.724-16.625-3.728l-0.063,15.324c0.051,0,5.369,0.123,10.422,2.388
		C415.335,147.324,418.195,151.12,418.765,156.732z"/>
	<rect x="336" y="389.509" width="38" height="16"/>
	<path d="M246,335.509V111.145l-99.055,224.364H246z M231,320.509h-60.561L231,183.962V320.509z"/>
</g>
</svg>