<?xml version="1.0" encoding="iso-8859-1"?>
<!-- Uploaded to: SVG Repo, www.svgrepo.com, Generator: SVG Repo Mixer Tools -->
<svg version="1.1" id="Layer_1" xmlns="http://www.w3.org/2000/svg" xmlns:xlink="http://www.w3.org/1999/xlink" 
	 viewBox="0 0 501.333 501.333" xml:space="preserve">
<rect y="100.8" style="fill:#444652;" width="501.333" height="341.333"/>
<polygon style="fill:#C9C5C3;" points="464,79.467 476.8,100.8 476.8,418.667 21.333,418.667 21.333,100.8 37.333,79.467 
	250.667,136 "/>
<path style="fill:#F6F7F8;" d="M250.667,397.333c-69.333-25.6-144-25.6-213.333,0c0-106.667,0-212.267,0-318.933
	c69.333-25.6,144-25.6,213.333,0C250.667,185.067,250.667,291.733,250.667,397.333z"/>
<g>
	<path style="fill:#E0E0DF;" d="M464,397.333c-69.333-25.6-144-25.6-213.333,0c0-106.667,0-212.267,0-318.933
		c69.333-25.6,144-25.6,213.333,0C464,185.067,464,291.733,464,397.333z"/>
	<path style="fill:#E0E0DF;" d="M222.933,129.6c-50.133-19.2-105.6-19.2-156.8,0c0-4.267,0-9.6,0-13.867
		c50.133-19.2,105.6-19.2,156.8,0C222.933,120,222.933,124.267,222.933,129.6z"/>
	<path style="fill:#E0E0DF;" d="M222.933,180.8c-50.133-19.2-105.6-19.2-156.8,0c0-4.267,0-9.6,0-13.867
		c50.133-19.2,105.6-19.2,156.8,0C222.933,172.267,222.933,176.533,222.933,180.8z"/>
	<path style="fill:#E0E0DF;" d="M222.933,233.067c-50.133-19.2-105.6-19.2-156.8,0c0-4.267,0-9.6,0-13.867
		c50.133-19.2,105.6-19.2,156.8,0C222.933,223.467,222.933,228.8,222.933,233.067z"/>
	<path style="fill:#E0E0DF;" d="M222.933,285.333c-50.133-19.2-105.6-19.2-156.8,0c0-4.267,0-9.6,0-13.867
		c50.133-19.2,105.6-19.2,156.8,0C222.933,275.733,222.933,280,222.933,285.333z"/>
	<path style="fill:#E0E0DF;" d="M222.933,336.533c-50.133-19.2-105.6-19.2-156.8,0c0-4.267,0-9.6,0-13.867
		c50.133-19.2,105.6-19.2,156.8,0C222.933,328,222.933,332.267,222.933,336.533z"/>
</g>
<g>
	<path style="fill:#C9C5C3;" d="M435.2,129.6c-50.133-19.2-105.6-19.2-156.8,0c0-4.267,0-9.6,0-13.867
		c50.133-19.2,105.6-19.2,156.8,0C435.2,120,435.2,124.267,435.2,129.6z"/>
	<path style="fill:#C9C5C3;" d="M435.2,180.8c-50.133-19.2-105.6-19.2-156.8,0c0-4.267,0-9.6,0-13.867
		c50.133-19.2,105.6-19.2,156.8,0C435.2,172.267,435.2,176.533,435.2,180.8z"/>
	<path style="fill:#C9C5C3;" d="M435.2,233.067c-50.133-19.2-105.6-19.2-156.8,0c0-4.267,0-9.6,0-13.867
		c50.133-19.2,105.6-19.2,156.8,0C435.2,223.467,435.2,228.8,435.2,233.067z"/>
	<path style="fill:#C9C5C3;" d="M435.2,285.333c-50.133-19.2-105.6-19.2-156.8,0c0-4.267,0-9.6,0-13.867
		c50.133-19.2,105.6-19.2,156.8,0C435.2,275.733,435.2,280,435.2,285.333z"/>
	<path style="fill:#C9C5C3;" d="M435.2,336.533c-50.133-19.2-105.6-19.2-156.8,0c0-4.267,0-9.6,0-13.867
		c50.133-19.2,105.6-19.2,156.8,0C435.2,328,435.2,332.267,435.2,336.533z"/>
</g>
</svg>